<?xml version="1.0" encoding="utf-8"?>
<!-- Generator: Adobe Illustrator 24.0.0, SVG Export Plug-In . SVG Version: 6.00 Build 0)  -->
<svg version="1.1" id="Capa_1" xmlns="http://www.w3.org/2000/svg" xmlns:xlink="http://www.w3.org/1999/xlink" x="0px" y="0px"
	 viewBox="0 0 200 200" style="enable-background:new 0 0 200 200;" xml:space="preserve">
<style type="text/css">
	.st0{clip-path:url(#SVGID_2_);fill:#FFFFFF;}
	.st1{clip-path:url(#SVGID_4_);fill:#E41F1B;}
	.st2{clip-path:url(#SVGID_6_);fill:#E41F1B;}
	.st3{clip-path:url(#SVGID_8_);}
</style>
<g>
	<g>
		<g>
			<defs>
				<rect id="SVGID_1_" x="0.5" y="-0.2" width="200" height="200"/>
			</defs>
			<clipPath id="SVGID_2_">
				<use xlink:href="#SVGID_1_"  style="overflow:visible;"/>
			</clipPath>
			<path class="st0" d="M193.4-0.2H7.6c-4.1,0-7.4,3.5-7.1,7.6l14.7,185.8c0.3,3.7,3.4,6.5,7.1,6.5h156.3c3.7,0,6.8-2.8,7.1-6.5
				L200.5,7.5C200.8,3.4,197.6-0.2,193.4-0.2"/>
		</g>
	</g>
	<g>
		<g>
			<defs>
				<path id="SVGID_3_" d="M9.4,5.1c-2,0-3.6,1.7-3.4,3.7l14.6,183.9c0.1,1.1,1,1.9,2,1.9h155.9c1.1,0,1.9-0.8,2-1.9L195.1,8.9
					c0.2-2-1.4-3.7-3.4-3.7L9.4,5.1L9.4,5.1z"/>
			</defs>
			<clipPath id="SVGID_4_">
				<use xlink:href="#SVGID_3_"  style="overflow:visible;"/>
			</clipPath>
			<rect x="0.5" y="1.2" class="st1" width="50" height="140.3"/>
		</g>
		<g>
			<defs>
				<path id="SVGID_5_" d="M9.4,5.1c-2,0-3.6,1.7-3.4,3.7l14.6,183.9c0.1,1.1,1,1.9,2,1.9h155.9c1.1,0,1.9-0.8,2-1.9L195.1,8.9
					c0.2-2-1.4-3.7-3.4-3.7L9.4,5.1L9.4,5.1z"/>
			</defs>
			<clipPath id="SVGID_6_">
				<use xlink:href="#SVGID_5_"  style="overflow:visible;"/>
			</clipPath>
			<rect x="150.5" y="1.2" class="st2" width="50" height="140.3"/>
		</g>
	</g>
	<g>
		<g>
			<defs>
				<rect id="SVGID_7_" x="0.5" y="-0.2" width="200" height="200"/>
			</defs>
			<clipPath id="SVGID_8_">
				<use xlink:href="#SVGID_7_"  style="overflow:visible;"/>
			</clipPath>
			<path class="st3" d="M76.8,90.2c0.1,2.6,1.5,9.3,10.1,15.8c3.6,2.7,5.2,3.9,5.7,4.2l0,0c0.2,0.2-1.3,0.1-1.7,0.2
				c-0.7,0.1-3-0.1-4.8,0.2c-1.7,0.3-1.4,0.7-1.6,1.9c-0.1,0.9,0,2.5-0.1,3.7c0,1.3-0.1,2.2,0.4,2.8c0.5,0.6,0.9,0.7,3.1,0.6
				c2.2-0.1,8.1-0.1,8.9-0.3c0.9-0.2,0.8,0.1,0.2,1.3c-0.9,2-3.9,11-8.5,19.5c-0.6,1.2,1.2,0.6,2.7,1.4c2.8,1.4,2.7,1.7,3.5,0.3
				c0.8-1.5,4.9-11.1,5.5-14.1c0.1-0.4,0.2-0.7,0.3-0.1c0,0.4,0.1,12.5-0.2,16.3c0,0.2,0,0.4,0.2,0.6s0.5,0.3,0.8,0.4l0,0
				c1.4-0.5,3.1-0.8,4.5-0.6c0.1,0,0.2,0,0.4-0.1c0.1-0.1,0.1-0.1,0.2-0.2c0.1-0.2,0.2-0.4,0.2-0.7c0,0,0,0,0-0.1
				c0.1-0.3,0.1-0.6,0.2-1c0-0.2,0-0.4,0-0.6c0-0.3,0-0.5,0-0.8s0-0.6,0-0.9c0-0.4,0-0.7,0-1.1s0-0.8,0-1.2c0-0.4,0-0.3,0-0.7
				c0-0.5,0-0.9,0-1.4s0-1-0.1-1.4c0-0.5-0.1-1-0.1-1.5s-0.1-1-0.1-1.5s-0.1-1-0.2-1.6c-0.1-0.5-0.1-1.1-0.2-1.6
				c-0.1-0.5-0.1-1-0.2-1.6c-0.1-0.5-0.2-1-0.2-1.5c-0.1-0.5-0.2-0.7-0.3-1.2s-0.2-1-0.3-1.4c-0.1-0.5-0.2-0.9-0.4-1.4
				c-0.1-0.4-0.2-0.7-0.3-1.1c0-0.1-0.1-0.5-0.1-0.6c0-0.2,0.3,0,0.5-0.1c0,0,0.1,0,0.2,0c1.5-0.2,4.2-0.1,4.8,0
				c0.6,0,3.6,0.3,4.5,0.4s1.9,0.3,1.8-2.3c0-0.7,0-1.1,0-1.7c0-0.1,0-0.2,0-0.3c0-0.2,0-0.3,0-0.5c0-0.1,0-0.2,0-0.3
				c0-0.1,0-0.2,0-0.3c0-0.1,0-0.2,0-0.2c0-0.1,0-0.3,0-0.4v-0.1c0-0.1,0-0.2,0-0.3v-0.1c0-0.1,0-0.1,0-0.2c0,0,0,0,0-0.1
				s0-0.2,0-0.3c0-0.6-0.1-1.8-1.3-2.1c-1.4-0.3-3.8-0.4-6-0.2c-0.3,0-0.4,0-0.3-0.1l0,0c0.5-0.3,3.6-2.1,7.2-5.3c4-3.5,5.8-5.4,7-8
				c0,0,4.3-8.4,4.1-15.5c0-1.4,0.2-1.3,1.1-1.3c0.3,0,1.3-0.1,1.8-0.4c1.8-0.4,3.5-6.7,3.5-6.7s2.8-9.5,3.4-13.4
				c0.6-3.5,0.5-5.5-1.7-6.5l-0.4-0.2c-0.2-0.1-0.2-0.3-0.2-0.5c0-0.1,0.1-0.3,0.1-0.4c1-3.6,2.9-8.1,2.5-10
				c-0.1-0.5-0.5-0.7-0.7-0.8s-1-1.1-1.3-1.7c0-0.1,0-0.2-0.1-0.3c-0.6-6.8-3-15.3-10.2-22.7c0,0-0.5-0.4-0.8-0.7
				c-0.6-0.6-1.4-1.2-2.3-1.9c-1.9-1.4-3.4-2.5-6.6-4.1c-0.2-0.1-2.6-1.2-6.1-2c-0.3-0.1-0.7-0.2-1-0.3c-0.5-0.1-1.3-0.3-2.2-0.4
				c-2.1-0.3-4.5-0.5-7-0.4l0,0c-0.3,0-0.6,0-0.7,0c-0.1,0-0.3,0-0.5,0s-0.3,0-0.5,0c-0.5,0-1.2,0.1-1.9,0.2
				c-1.2,0.2-2.4,0.4-3.2,0.6c-0.9,0.2-2,0.5-3.5,0.9c-0.6,0.2-1.2,0.4-1.8,0.6c-0.2,0.1-0.3,0.1-0.5,0.2c-0.6,0.2-1.3,0.4-2,0.7
				c-0.5,0.2-2.5,1-2.9,1.3c-0.2,0.1-0.5,0.2-0.8,0.4c-1.4,0.5-1.7,1.3-1.8,1.7c0,0.3-0.1,0.6-0.2,0.8c-2.1,4.4-6.9,4.8-8.8,4.9
				c-0.5,0-0.9,0.1-0.8,0.6c0.4,1.3,2.7,3.6,4.1,4c0,0.2-1.2,0.5-1.4,0.5c-0.6,0.1-2.9-0.1-3,0l0,0c-2.6,0.2-3.4,2-3.6,2.8
				c-0.1,0.3,0,0.5,0.1,0.8c0.6,0.9,1.2,1.6,1.6,2.7l0,0c0.1,0.3,0.2,0.6,0.3,1c0.1,0.5,0.5,1,0,2c-0.9,1.7-3.1,2.3-3.4,4
				c-0.5,2.4,0.4,4,1.3,8c0.6,2.8,1.3,5.6,1.8,6.9c0,0.1,0,0.1-0.1,0.2c-0.2,0-0.5,0.1-0.6,0.1c-1.3,0.5-1.7,1.5-1.8,3.5
				c-0.3,4.4,2.9,11.1,3.9,16.9c0.3,2,1.2,5.1,2.7,6.4c0.3,0.3,1.1,0.5,1.5,0.6c1.2,0.2,1.7-0.5,1.7,0.6c0,0.2,0.1,0.9,0.1,1.3
				C74.5,86.1,76.8,90.2,76.8,90.2 M78.8,20.6c0.3-0.4,0.9-1,1.5-1.4c0.6-0.5,3.8-2.9,6.8-3.8c0.5-0.2,0.7-0.2,1-0.3
				c0.4-0.1,0.8-1.1-0.1-1.2c-1-0.1-1.4-0.1-1.9-0.1s-0.8-0.3-0.4-0.7c0.4-0.4,1.1-0.8,2.3-1.3c2.6-1,7.3-1.6,9.5-1.8
				c2.8-0.2,3.2-0.2,5-0.1c1.7,0.1,3.1,0.5,3.7,0.6c3.3,0.6,7,2.1,10.4,3.9c1.8,1,3.5,2.2,5,3.4c4.8,3.7,10.3,10.8,9.5,25.8
				c-0.1,1.8-0.3,2.7-0.4,3.2c-0.1,0.4-0.7,1.2-1,0.2c-1-3.2-2.3-8.8-5.2-13.3c-0.4-0.6-1-0.6-1,0.1c0,0.3,0.2,3.1,0.1,3.7
				c-0.5,3.7,0.7,2.2,2.3,6.2c0.5,1.2,1.2,3.6,1.3,5.2c0,0.4,0.1,0.8,0.1,1.3s-0.3,0.6-0.3,0.6c-1.1,0-3.1-0.5-4.2-0.6
				c-1.2,0-9.6-0.1-12.8,0.1c-3.2,0.2-4.9,1.4-6.7,2.8c-0.3,0.2-0.7,0.5-1,0.6c-0.1,0.1-0.3,0.1-0.4,0.1c-0.1,0-0.4-0.1-0.8-0.1
				c-0.8-0.2-1.7-0.2-2.5,0s-1.1,0.4-1.9-0.1c-1.2-0.7-2.9-3.4-9.2-3.4c-3.5,0-8.1-0.1-10.9,0c-0.9,0-1.3,0.1-1.6,0.1
				c0-0.1,0-0.2,0-0.3c0-5,3.2-3.9,3.6-5.2c0.9-3.2,1.1-10.9,6.8-15.7c2.7-2.3,4.1-2.4,6.6-2.4c2.7,0,5.3,0.7,6.6,1.4
				c1.1,0.5,1.6,0.9,2,0.6c0.4-0.3,1.5-1.3,2-1.7s0.3-0.9-0.1-1.3c-0.4-0.3-4.4-5.3-10.5-6.4c-1.4-0.2-2.4-0.4-3.7-0.4
				c-0.7,0-1.3,0-2.9,0.2c-2.3,0.3-5.4,1.6-7.4,2.4C78.3,21.4,78.7,20.7,78.8,20.6 M126.9,52.8c-0.3,0.3-0.5,0.1-1,0.2
				c-0.4,0.1-0.7,0.3-1.1,0.3c-0.6-0.1-0.9-0.8-0.6-1.2c0.5-0.7,1.2-0.1,1.7,0c0.3,0,0.5,0,0.7,0.1C127,52.3,127.1,52.5,126.9,52.8
				 M118.5,55.3c0,0-1.1-0.8-1.5-1.4c-0.2-0.3-0.1-0.6,0.3-0.6c1.7,0,3.2-0.1,3.9,0.6c0.5,0.5,0.6,1.4,0.3,2
				c-0.3,0.7-0.9,0.5-1.3,0.5C120,56.4,118.5,55.3,118.5,55.3 M119.3,58.3c-0.3,0.2-1.5-0.2-1.8-0.4c-0.7-0.4-1.1-0.6-2-1.4
				c-0.6-0.5-1.7-0.7-2.7-0.7c-0.8,0-1.5,0.2-2.1,0.3s-0.6-0.4-0.5-0.6c0.2-0.2,1-1,2.8-1.4c0.3-0.1,0.8,0,1,0
				c0.8,0.1,1.6,0.6,2.3,1.2c0.6,0.6,2,1.7,2.7,2.2C119.3,57.7,120,57.9,119.3,58.3 M93.5,70.8c0.2,0.3,0.2,0.9,0.2,1.2
				c-0.1,0.3-1.1,0.7-1.9-0.6c-0.9-1.3-0.5-2.8,0.1-3.5c0.8-1,2-0.3,1.9,0.1C93.1,69.3,93.4,70.4,93.5,70.8 M81.7,56.5
				c0.2-0.2,0.3-0.2,1-0.5c0.5-0.3,1.1-0.6,1.6-1c1-0.7,3-1.4,3.8-1.3c0.6,0,1.6,0.3,2.2,0.9c0.6,0.6,0.7,1.4,0,1.2
				c-0.7-0.1-1.5-0.3-3,0c-1.6,0.4-2.7,1-3.5,1.3c-0.8,0.4-1.6,0.5-1.9,0.4C81.7,57.5,80.9,57.1,81.7,56.5 M80.6,55.1
				c-0.8,0.5-1.5,1-2.1,1.4c-0.7,0.5-1.7,0-1.4-1c0.1-0.5,0.8-1.7,1.9-1.9c0.1,0,0.7-0.1,1.2-0.2c0.5-0.1,1.1-0.1,1.4-0.1
				c0.8,0,0.9,0.6,0.3,0.9C81.7,54.5,81.1,54.8,80.6,55.1 M67.8,39.1c0.7-1.8,1.9-3.4,2.7-4.4s0.4-2.3,0-3.5
				c-0.3-1.1-0.9-2.2-1.1-2.5c-0.1-0.2-0.1-0.4,0-0.5c0.1,0,0.1-0.1,0.1-0.1L71,28c4.2-0.5,7.9-2,9-2.6c0.6-0.3,1.1-0.6,1.7-0.8
				c0.7-0.2,1.4-0.5,2.2-0.6c0.6-0.1,1.2-0.2,1.8-0.2c0.8-0.1,2.1,0.5,1.9,0.7c-0.7,0.4-4,1.2-6.8,4.6c-1.8,2.1-2.2,3.4-2.8,4.4
				s-1.1,1.2-1.9,1.9c-0.4,0.4-1.3,1.1-1.7,2.3s-2,5.3-2.2,11.9c0,0.8-0.2,1.6-0.9,1.8l0,0c-0.6,0.2-1.1,0.6-1.2,0.2
				c-0.4-1.4-1.3-4.6-1.6-6.5c-0.1-0.6-0.3-1.2-0.4-1.9C67.7,41.5,67.5,40,67.8,39.1 M71.4,70.2c-1.2-0.8-1.1-1.8-1.4-2.9
				c-0.6-2.2-1.3-4.8-1.9-7.1c-0.4-1.4-0.5-4.5,1.4-4.5c0.9,0,1.6,0.3,1.9,1.2c0.7,1.9-0.6,1.6-0.3,3.9c0.2,1.6,0.5,3.2,1,6
				c0.2,1.3,0.6,4.3-0.5,3.6 M76,53.3c-0.4,0-0.7-0.2-1.1-0.3c-0.5-0.1-0.8,0-1-0.2c-0.2-0.3-0.1-0.5,0.1-0.6c0.3-0.1,0.5,0,0.7-0.1
				c0.6-0.1,1.2-0.7,1.7,0C76.8,52.5,76.6,53.2,76,53.3 M76.8,66.7C76.6,66,77,64.9,78.6,66c0.3,0.2,1.1,0.5,1.9,0.8
				c0.5,0.2,0.9-0.1,1-0.5c0.2-0.4,0.6-1.2-0.2-1.5c-0.7-0.4-2.6-0.7-3.7-3.3c-0.2-0.5,0.1-1,0.4-1.1c0.3-0.1,0.7-0.1,1,0.3
				c0.3,0.3,1.1,1,1.7,1.1c0.6,0,0.7-0.2,0.8-0.4c0.5-0.6,2-2.7,5-2.3c1.3,0.2,2.4,0.4,2.8,0.5c0.3,0,1.1,0.1,1.9-0.1
				c0.9-0.2,2.3-0.5,1.6,0.3c-0.5,0.6-1,0.9-0.5,1.6c0,0,0,0.1,0.1,0.1c0.4,0.6,0.4,1.4,0,2l-0.1,0.1c-0.7,0.9-2.1,1.9-4.9,2.1
				c-1.3,0.1-1.4,0-1.4,0.8c0,0.3,0,0.4,0,0.6c0.1,0.4,0.3,0.5,1.2,0.6c0.7,0,1.9-0.1,1.9-0.1c0.3-0.1,0.6,0.1,0.5,0.3l-0.2,0.2
				c-0.7,0.8-0.9,1.6-0.9,2.1c-0.1,0.4-0.3,0.7-0.6,0.9l0,0c-0.4,0.2-2.1,0.6-3.5,1.7c-1.3,1.1-4.1,2-5.3,0.7
				C78.3,71.9,77.4,68.9,76.8,66.7 M89.3,98.5c-2.4,0.1-8.6-3.7-11.3-14.3c-0.7-2.7,1-5,2.1-5.3c0.6-0.2,1-0.3,1.2-0.3
				s1.3,0,1.3,1.2c0,1,0.8,9.3,2.9,12.2c0.5,0.7,1,0.8,1.3,0.1c0.2-0.6,0.6-1.4,0.7-1.7c0.1-0.2,0.9-1.4,1.1-0.5
				c0.5,1.9,1.7,5.9,2.1,6.9C91.6,98.5,90.2,98.4,89.3,98.5 M90.8,81.2c-3.1,0-4.5-1.2-4.8-1.5c-0.2-0.3,0.1-0.6,0.5-0.7
				c0.7-0.2,2-0.9,2.6-1.3c0.5-0.4,2-1.3,2.7-1.8c0.3-0.2,2.3-1.1,3.5-0.3c1.8,1.2,3.4,2,6.4,1.9c1.9-0.1,1.9-1.7,3.5-2.2
				c1.4-0.4,1.7-0.8,2.1-1.1c0.6-0.1,1-0.3,1.6,0.3c0.8,0.7,1.1,1.3,2,2.3c1.2,1.4,2.6,2.1,3,2.1c0.4,0.1,0.7,0.4,0.7,0.6
				c0,0.1-0.2,0.6-1.4,0.9c-4.2,1.2-8.7,0.4-11.1-0.5c-1.2-0.5-2.3-0.6-3.6,0C97.2,80.7,93.7,81.2,90.8,81.2 M106.5,83.8
				c-0.7,0.3-2.8,0.7-3.8,0.8c-1,0.1-4.2,0.3-4.7,0.2c-0.7,0-1.6-0.4-2.3-1c-0.1-0.1-0.3-0.6,0.3-0.6c1.1,0,3-0.6,9.3-0.1
				c0.7,0.1,1,0.1,1.2,0.1C106.7,83.3,107.2,83.5,106.5,83.8 M133.8,59.1c-0.8,4.5-1.8,6.7-2.4,9.5c-0.6,2.9-1.9,7.1-3.1,7.2
				c-1.2,0.4-1.7-1-2.5,0c-0.5,0.6-0.8,1.4-1.2,2c-0.3,0.3-0.5,1.1-0.5,1.5c0,0.8,0,3.4-0.8,6.8c-1.1,5.2-3.1,8.9-5.1,11.3
				c-3.9,4.5-7.6,5.3-8.1,5.5c-0.6,0.3-1.4,0.1-1.7,0s-0.5-0.5-1-0.9c-0.5-0.5-0.7,0.2-0.7,0.4c0,0.2,0.3,2.3-0.3,3.3
				c-1.2,2.1-2.3,2.3-2.9,4.9c-0.2,0.9-0.1,2.2-1.1,1.6c-2.6-1.5-6.2-5.4-7-9.3c-0.2-1.2,0-2.5,0.7-4.7c0.4-1.3,0.7-2.8,0.7-3.6
				c0-1.5-0.6-2.8,0-2.9c1.1-0.2,1.6,2.6,2.1,2.3c0.9-0.5,0.2-3.4,0.2-3.4s-0.4-0.8-1.9-1.2c-0.9-0.2-1.2-0.9-0.2-1.3
				c0.7-0.3,1.5-0.8,2.5-0.7c6.3,0.9,8.2-0.4,10.7-1.1c0.5-0.1,0.8-0.2,1.2,0s1.4,0.8,1.7,1.3c0.2,0.5,0,2.6,0.3,4.2
				s1.5,0.1,1.7-0.5c0.3-0.6,0.6-2.2,0.6-2.5c0.1-0.4,0.4-2,1-2.5c1.2-1,1.6-2.2,1.8-2.7s0.5-2,0.4-4.3c-0.1-2.2-0.5-2.5-1-2.9
				c-0.5-0.5-1.2-0.4-2.5-1.6c-1.2-1.1-2.2-2.9-3.1-4c-0.9-1.1-2.3-2.3-4-2.7s-1,1.1-0.9,1.6c0.1,0.3,0.5,1.7-0.1,2.1
				c-0.5,0.4-3.9,2.7-6.9,1.9c-3.6-0.9-4.8-2.9-4.9-4.8c-0.1-1.4,0.6-2.7,1.4-4.2c0.5-0.9,0.7-2.4,0.9-3.9c0.2-1.2,0.5-2.8,0.7-3.4
				c0.2-0.4,0.6-0.9,1.6-0.8c1,0.1,1.6,0.5,1.8,1.4c0.6,2.9,1.6,3.6,2,3.8c0.3,0.2,1-0.2,1.2-0.4c0.3-0.2,0.9-0.8,0.7-1.2
				c-0.3-0.5-0.5-0.9-0.5-1.2c-0.1-0.5,0.6-0.5,0.7-0.4c1.1,0.9,2.2,1,4.1,1.3c3.4,0.6,3.9-0.7,6.2-0.3c0.3,0.1,0.9,0.3,1.1,0.7
				c0.2,0.3,0.4,1,0.7,1.1s1,0.2,1.3,0.2c0.5,0.1,1.4,0,1.2,0.9c-0.4,2.4-3.2,3.1-4.5,3.3c-0.5,0.1-0.8,0.1-0.9,0.2
				c-0.3,0.2-0.3,1,0,1.5c0.2,0.3,1.3,0.4,2.7,0.1c1.5-0.3,3-1,4.1-2.8c1.2-1.9,1.9-6.1,2-6.8c0.1-0.8,0.4-2.1,0.9-2.3
				c0.4-0.3,2.4-0.9,2.7-0.8c0.3,0.1,0.6,0.2,0.7,1c0.2,0.8-0.1,5.4-0.1,6.1c0,0.7,0.4,0.7,0.6,0.6c0.5-0.2,1.7-1,2-2
				c0.2-0.7-0.4-1.7-0.1-2.7c0.5-1.5,0.9-1.9,1.2-1.9C133.9,55.7,134.3,56.6,133.8,59.1 M160.6,152.9c0.6,0.2,0.9,0.7,0.8,1.3
				l-2,8.9c-0.1,0.4-0.5,0.7-0.9,0.7h-2.8c-0.5,0-1-0.4-0.9-1c0-0.1,0-0.2,0-0.2c0.1-2.9-1.7-5.1-5.9-5.1c-6.9,0-12,5.7-12.6,13.1
				c-0.7,7.7,4.7,12.2,12.2,12.2c3.8,0,6.8-0.7,8.5-1.3c0.7-0.2,1.3,0.4,1.2,1.1l-0.9,4.6c-0.1,0.4-0.4,0.7-0.7,0.8
				c-1.5,0.5-5.8,1.6-12.4,1.6c-15.6,0-21.9-9-20.9-18.1c0.9-8.1,6.3-20.1,27.5-20.1C154.8,151.5,158.1,152.2,160.6,152.9
				 M72.7,152.9c0.1-0.5,0.5-0.8,1-0.8H89c0.6,0,1,0.6,0.9,1.1l-0.5,2.4c-0.1,0.4-0.4,0.7-0.8,0.7c-0.1,0-0.1,0-0.1,0
				c-1.2,0.2-3.2,0.5-4.9,1.9l-12.7,10.6l0,0l9.8,13.3c1.9,2.4,2.8,2.9,4.7,2.9c0.6,0,1.1,0.6,0.9,1.2l-0.5,2.4
				c-0.1,0.4-0.5,0.7-0.9,0.7h-7.6c-8.5,0-10.8-3.7-17.8-16.6l0,0l-2.1,9.4c-0.3,1.5,0.9,2.2,1.8,2.6h0.1c0.4,0.2,0.7,0.6,0.6,1.1
				l-0.6,2.8c-0.1,0.4-0.5,0.7-0.9,0.7H40.7c-0.6,0-1.1-0.6-0.9-1.2l0.5-2.4c0.1-0.4,0.4-0.7,0.9-0.8c0,0,0,0,0.1,0
				c1.6-0.2,3.3-1.2,4.4-6.2l4-18.4c0.5-2.4-0.7-3.4-1.8-3.8c0,0-0.1,0-0.2-0.1c-0.5-0.2-0.8-0.7-0.7-1.2l0.5-2.5
				c0.1-0.5,0.5-0.8,1-0.8h16.8c0.6,0,1,0.5,0.9,1.1l-0.5,2.4c-0.1,0.4-0.3,0.6-0.7,0.7h-0.1c-0.8,0.3-2,0.9-2.4,2.5l-2.2,10.2l0,0
				L73.4,158c0.8-0.6,0.6-1.5-0.3-1.9l0,0c-0.5-0.2-0.8-0.7-0.7-1.2L72.7,152.9 M119.8,163.1c-0.6,0-1-0.5-0.9-1c0-0.1,0-0.1,0-0.1
				c0.2-2.3-0.6-3.7-3.3-3.7h-8.1l-2.2,9.9h11.6c0.6,0,1,0.6,0.9,1.1l-1.1,5.1c-0.1,0.4-0.5,0.7-0.9,0.7h-12c0,0-1.3,6-1.4,6.3
				c-0.4,1.9,0.9,3,1.8,3.4c0,0,0.1,0,0.1,0.1c0.4,0.2,0.6,0.6,0.5,1l-0.6,2.8c-0.1,0.4-0.5,0.7-0.9,0.7H89.2c-0.6,0-1-0.5-0.9-1.1
				l6.1-27.8c0.6-2.5-0.8-3.5-1.8-3.8h-0.1c-0.5-0.2-0.7-0.6-0.6-1.1l0.5-2.4c0.1-0.5,0.5-0.8,1-0.8h31.3c0.6,0,1,0.6,0.9,1.1
				l-2,9.1c-0.1,0.4-0.5,0.7-0.9,0.7h-2.9"/>
		</g>
	</g>
</g>
</svg>
